<?xml version="1.0" encoding="UTF-8" standalone="no"?>
<svg
   xmlns:dc="http://purl.org/dc/elements/1.1/"
   xmlns:cc="http://creativecommons.org/ns#"
   xmlns:rdf="http://www.w3.org/1999/02/22-rdf-syntax-ns#"
   xmlns:svg="http://www.w3.org/2000/svg"
   xmlns="http://www.w3.org/2000/svg"
   height="548.91107"
   width="1019.3"
   xml:space="preserve"
   enable-background="new 0 0 1024 768"
   viewBox="0 0 1019.3 548.91107"
   y="0px"
   x="0px"
   id="Слой_1"
   version="1.1"><metadata
     id="metadata9"><rdf:RDF><cc:Work
         rdf:about=""><dc:format>image/svg+xml</dc:format><dc:type
           rdf:resource="http://purl.org/dc/dcmitype/StillImage" /><dc:title></dc:title></cc:Work></rdf:RDF></metadata><defs
     id="defs7" /><path
     style="fill:#000000"
     id="path3"
     d="m 776.4,399.01105 c 0,0 -4.8,1.4 -4.8,4 0,2.6 0,6.9 0,6.9 l -2.4,6.2 -2.5,6.1 -4.3,5.7 0,12.9 c 0,0 3.4,5.4 3.4,8 0,2.6 4.2,12.6 4.2,12.6 l 2.8,7.8 c 0,0 8.6,12.2 4.8,14.4 0,0 -0.2,4.8 1,6.1 1.2,1.3 4.8,10 4.8,10 l 3.2,9.6 0,13.3 c 0,0 -0.1,14.8 -3.6,15.2 0,0 -5.9,10.3 -8,10.3 0,0 -7.9,1.1 -7.9,0 0,-4.6 0,0.8 0,0.8 l 0.5,-10.1 -5,-5.7 -3.2,-3.9 -3.7,-6.1 c 0,0 -2.4,-2.2 -2.4,-3.9 0,-1.7 0,-7.4 0,-7.4 0,0 -4.8,1.8 -4.8,0.5 l -3.9,-7 c 0,0 -4.3,-3.5 -3.5,-4.8 l -2.2,-5.7 c 0,0 -2.2,-7.4 0,-10.5 l 1.7,-7 -0.4,-3.4 -2.2,-7.3 -4.1,3 -2.4,-4.8 0,-5.5 -4,-2.7 -3.4,-5.2 -3.5,-2.6 -2.6,-0.4 -1.9,1 -12.3,4.9 -4.6,2 c 0,0 -4.7,-2.7 -4.7,-3.8 0,-1.1 -9.5,-8.5 -9.5,-8.5 l -7.4,-3.5 c 0,0 -2.2,-2.2 -3,0 -0.9,2.2 -12.6,-3.9 -13.9,0.9 l -4,0.4 c 0,0 -10.1,1.9 -10.1,-2.3 0,-4.2 0,-4.9 0,-4.9 0,0 -2.6,1.5 -2.6,5.4 l -5.1,-0.4 -4.8,1.3 -6.5,1.3 -2.6,3.1 -3.5,6.9 -2.6,3.8 c 0,0 9.6,10.1 8.3,10.5 -1.3,0.4 -8.3,-5.7 -8.3,-5.7 l -2.7,-0.9 -5.3,0.4 0,6.5 -4.9,-3.9 -5.1,-0.9 -8.2,0.9 -3,-3.9 -7.1,-4.8 -8.4,-3.6 0,3.9 -1.4,4.1 -4.4,-1.7 -10.2,-3 -9,0.9 -8.7,-0.4 -5.6,5.2 -5.6,-5.2 c 0,0 -4.3,-0.4 -4.3,2.2 l 2,6.1 -3.2,4.4 0,4.1 -5.7,0 -8.2,5.7 -4.2,0 -3.1,0 -3.1,0 -5.6,0 0,5.6 0,3.1 -4.6,5.4 -2.7,-1 -3,5.3 c 0,0 0.2,6.8 -1.5,9 -1.7,2.2 0.1,-0.1 -1.6,-1 -1.7,-0.9 -0.4,4.3 -0.4,4.3 l 0.9,4.3 1.3,7.8 5.2,9.6 -3.5,1.7 -7,-1.9 -8.5,-2.8 -11.5,0 c 0,0 -5,-3.1 -6.1,-6.1 -1.1,-3 -7.6,-13 -7.6,-13 0,0 0,-5.8 0,-8.8 0,-3 -5.6,-8.3 -5.6,-8.3 -3,-2.2 -8.2,-9.2 -8.2,-9.2 l 0,-9.1 -3.5,-4.2 -3.4,-4.5 -9.2,-7.4 -8.7,-3.5 c 0,0 -7,1.3 -7.9,-0.4 -0.9,-1.7 -4.8,-1.7 -4.8,-1.7 l -6.5,12.2 -3,3.5 c -2.2,5.2 -12.9,-2.2 -12.9,-2.2 l -13.7,-7.3 0,-4.9 -2.4,-4.8 -3,-9.6 -4.7,-2.6 c -3.1,-0.9 -21,-23 -21,-23 l -34.4,0 0,10.3 -50.6,0 -11.6,-5.1 -51.5,-19.3 0,-0.9 -40.7,0 -3.3,-5.7 0,-7.1 -13.2,-9.8 c 0,0 -7.6,-2.6 -5.8,-3 l -0.1,-3.9 c 0,0 -6.2,1.3 -7.5,0 -1.3,-1.3 -13,-5.2 -14.3,-5.2 -1.3,0 -10,-9.6 -10,-9.6 l -9.6,-11.3 -14.2,-20 -6.8,-8.7 0,-7.2 -4.1,-5.4 -3.7,-8.3 -2.5,-6.1 c 0,0 3.1,0.4 4.8,4.4 0,0 -1.7,-9.1 -4.8,-7.4 0,0 -7.8,-3.9 -9.1,-8.7 l -7.4,-8.7 c 0,0 -5.7,-9.1 -5.7,-11.8 l -2.2,-15.2 -6.5,-7.8 -2.2,-6.1 1.7,-3.9 2.2,-7.4 2.6,-8.3 -3,-10.9 -3.6,-10.7 -3,-10 2.2,-11.3 5.7,-15.7 0.9,-15 -0.5,-15 0.4,-13.5 0,-12.100004 2.8,-2.7 2.6,0 c 0,0 2.6,-4.6 0.9,-4.6 l -5.5,0 c 0,0 -0.2,-5.2 2,-5.2 l -0.4,-5.2 c 0,0 -0.4,-5.2 1.3,-5.2 0,0 -3,-5.2 -5.2,-4.3 0,0 -3.5,-6.5 -2.2,-7 0,0 -0.8,-7 -1.7,-8.7 l -3.1,-6.1 -2.2,-5.2 -2.7,-9.7 16.1,6 13.1,-3.5 c 0,0 -5.7,-9.8 0,-9.8 0,0 6.5,0.6 -0.7,-8.6 l 492.5,0 0,-10.00000003 c 0,0 7.4,-2.89999997 6.8,12.80000003 0,0 2.5,-1.7 2.5,2.8 l 7.3,2.7 c 0,0 7.3,2.4 7.9,5.4 l 6.6,-1.2 c 0,0 12.5,-1.8 13.1,2.4 l 4,2.4 0,3.7 4.5,0.3 c 0,0 1.8,-5.8 9.7,3.9 l 12.7,-4.1 2.4,3.1 13.5,0 2.4,5.7 9.9,0 14.1,-9.4 63.2,35.4 0,8.3 6.9,3.6 5.7,0 0,7.2 4.9,4.4 c 0,0 6.8,-5.4 8,0 l -2.3,4.2 5.5,3 11.5,7.200004 c 0,0 2,3 2,6 l 3.8,24.7 0,15.3 0,10.8 -4,10.1 -5.7,5.4 c 0,0 -7.1,7 -5.3,12.4 l 8.6,5.2 6.9,0 15.4,-10.4 10.9,-4.2 9,-1.2 15.1,-7.8 7.2,-4.2 -2.4,-13.9 7.2,-3.6 33.8,-0.6 7.2,-11.5 23.9,-21.7 61.9,-1.8 0,-4.7 c 0,0 4.1,-3.7 5.3,-0.7 1.2,3 4.8,-0.6 4.8,-0.6 0,0 2.5,-3 4.8,-2.4 l 0,-7.100004 6.9,-5 0,-8.9 9.5,-19.4 6.6,-11.5 4.7,-0.1 c 0,0 -0.4,7.8 7,6.1 0,0 0.9,-2.2 4.8,-1.7 0,0 3.5,-3.5 8.3,1.3 4.8,4.8 0,1.7 0,1.7 l 4.8,3 -1.7,33.9 c 0,0 -1.1,-0.5 1.5,0 l 4.1,4.400004 0,6.9 5.4,3.1 5.2,8.3 -3.5,2.6 -10.9,5.2 -5.7,2.6 -2.6,-1.9 -1.7,2.5 -4,0 -5.1,4.2 -0.9,-7.9 -3,3 -0.4,6.8 -3,4.2 -4.5,0 -5.1,3.5 -3,-0.7 c 0,0 -3.5,-1.4 -3.5,1.6 l -1.7,3.4 -3.5,3.9 c 0,0 -5.2,2.2 -3.1,3 l -0.4,4.3 -3.5,6.1 0.9,1.9 c 0,0 1.7,3.3 -2.6,6.4 0,0 -6.1,4.8 0.4,7 0,0 1.7,4.8 2.2,6.5 0,0 3,5 5.2,6 l -5.2,6.4 -5.7,1.5 -8.5,0 -9.3,0 -8.8,2.3 -8.2,0 -4.5,3.1 -5.1,4.5 c 0,0 3.5,2.2 7.4,0.1 l 10,-1.3 8.3,-2.8 4.4,1.6 -6.6,3.6 c 0,0 -14.8,6 -14.8,4.7 0,-1.3 0,-0.8 0,-0.8 0,0 -13.8,5.6 -16.4,3.4 0,0 -4,3 0.8,3.9 0,0 0.4,3.3 0,13.9 -0.2,5.7 -7,11.8 -9.6,12.2 l -2.6,7.8 -3.5,3 -1.3,-8.7 -3.5,-1.7 -4.4,-3 -2.2,-4.4 -1.3,5.7 4.7,7.4 4.7,6.1 0,5.4 -3.9,9 -4.3,5.2 -5,8.7 -4.1,3.9 0,-8.3 3.4,-3.4 0,-4.3 -2.6,-4 -2.6,-3.1 -3.3,-3.9 -0.3,-4.4 3.1,-3.5 -1.2,-6.1 0,-2.9 3,-5.8 -4.6,3 c 0,0 -2.1,3.9 -1.2,5.2 0.9,1.3 0.5,5.7 0.5,5.7 l -1.7,8.3 0.9,7.5 -2.9,0 -2.8,-2.3 -3.5,-1.7 -5.7,-2.6 0.4,3.1 4.8,3.5 7.4,3.9 4.8,2.2 -2.7,7.8 -1.4,6.1 0,5.6 -2.9,-2.5 c 0,0 -1.1,4.4 1.5,4.8 2.6,0.4 7.1,0.4 7.1,0.4 0,0 2.2,2.6 2.7,4.8 0.4,2.2 2.2,7 2.2,8.3 0,1.3 -2.6,2.2 -2.6,2.2 l -4.6,-0.5 -0.4,3.5 c 0,0 -3.5,2.6 0,3 3.5,0.4 6.1,1.7 6.1,1.7 0,0 3,1.7 2.6,3.9 -0.4,2.2 -2.6,4.4 -2.6,4.4 l -4.8,1.3 c 0,0 1.3,3.9 -1.3,8.3 -2.6,4.4 -2.6,4.4 -2.6,4.4 l -4.4,2.2 -7,1.7 c 0,0 -2.2,3.9 -4.4,5.2 -2.2,1.3 -7.8,4.4 -8.7,6.5 -0.9,2.2 -4.8,4.8 -7,4.8 -2.2,0 -7,2.2 -7,2.2 l -6.1,4.8 c 0,0 1.3,1.3 0,4.4 -1.3,3 -0.9,6.1 -2.2,6.5 -1.3,0.4 -5.2,4.8 -5.2,4.8 0,0 -5.2,-1.7 -5.7,0.9 -0.4,2.6 -4.4,3 -4.4,3 l -5.3,3.5 -6.2,0.4 z" /></svg>